<svg t="1686928704200" class="icon" viewBox="0 0 1230 1024" version="1.1" xmlns="http://www.w3.org/2000/svg" p-id="4306" width="200" height="200"><path d="M88.309171 384.529655v107.225747L17.806183 447.852874l70.502988-63.323219zM1212.237447 447.735172l-70.73839 44.02023v-107.225747l70.73839 63.205517z" fill="#ffffff" p-id="4307"></path><path d="M155.869631 56.849655v477.042759l-67.56046-42.019311V56.849655h67.56046zM1141.499057 491.755402v0.117701l-66.736552 41.548506-0.823908-1.412414V56.849655h67.56046v434.905747z" fill="#ffffff" p-id="4308"></path><path d="M614.904114 726.922299h149.245057l448.088276 279.422529H17.806183l447.970575-279.187127 0.235402-0.235402h148.891954z" fill="#ffffff" p-id="4309"></path><path d="M465.776758 727.157701L17.806183 1006.344828V447.852874l70.502988 44.020229 67.56046 42.019311 130.295173 81.213793 179.611954 112.051494zM1212.237447 1006.344828L764.149171 726.922299l16.478161-10.24 162.898391-101.576092 131.236782-81.684598 66.736552-41.548506 70.73839-44.137931V1006.344828z" fill="#ffffff" p-id="4310"></path><path d="M106.082045 384.529655H70.7717V56.849655a17.655172 17.655172 0 0 1 17.655173-17.655172h67.560459v35.310345H106.082045zM1159.154229 384.529655h-35.310345V74.504828h-49.905287v-35.310345H1141.85216a17.655172 17.655172 0 0 1 17.655172 17.655172z" fill="#ffffff" p-id="4311"></path><path d="M173.524804 533.892414h-35.310345V17.655172a17.655172 17.655172 0 0 1 17.655172-17.655172h459.034483v35.310345h-441.37931z" fill="#ffffff" p-id="4312"></path><path d="M597.248942 727.04V17.655172a17.655172 17.655172 0 0 1 17.655172-17.655172h459.034483a17.655172 17.655172 0 0 1 17.655172 17.655172v514.354023h-35.310345V35.310345h-423.724138v691.611954zM297.934919 131.825287h171.961379v35.310345H297.934919zM232.728482 253.528276h302.374253v35.310345H232.728482zM232.728482 340.509425h302.374253v35.310345H232.728482zM232.728482 427.490575h302.374253v35.310345H232.728482zM232.728482 514.354023h302.374253v35.310345H232.728482z" fill="#ffffff" p-id="4313"></path><path d="M693.29308 253.528276h302.374252v35.310345H693.29308zM693.29308 163.016092h302.374252v35.310345H693.29308zM693.29308 340.509425h302.374252v35.310345H693.29308zM693.29308 427.490575h302.374252v35.310345H693.29308zM693.29308 514.354023h302.374252v35.310345H693.29308zM286.164804 597.451034h248.937931v35.310345H286.164804zM693.29308 597.451034h250.232643v35.310345H693.29308z" fill="#ffffff" p-id="4314"></path><path d="M78.89308 506.86823l18.679172-29.966713L475.028068 712.209655l-18.690942 29.966713z" fill="#ffffff" p-id="4315"></path><path d="M35.461355 1006.344828H0.151011V447.852874a17.655172 17.655172 0 0 1 26.953563-14.948046l70.620689 43.902528-18.714482 29.896092-43.549426-27.071264z" fill="#ffffff" p-id="4316"></path><path d="M88.19147 509.528276a17.41977 17.41977 0 0 1-9.29839-2.589425l-70.62069-44.02023a17.655172 17.655172 0 0 1-2.236322-28.248276l70.62069-63.323219A17.655172 17.655172 0 0 1 106.082045 384.529655v107.225747a17.772874 17.772874 0 0 1-17.772874 17.772874zM47.23147 445.263448l23.54023 14.712644V423.724138zM1229.89262 1006.344828h-35.310345V479.514483l-43.784828 27.188965-18.596781-30.013793 70.620689-44.02023a17.655172 17.655172 0 0 1 27.071265 14.594943z" fill="#ffffff" p-id="4317"></path><path d="M756.498597 709.996874l377.87954-235.625931 18.714483 30.013793-377.86777 235.614161z" fill="#ffffff" p-id="4318"></path><path d="M1212.47285 1024H17.806183a17.655172 17.655172 0 0 1-9.298391-32.603218l447.264368-278.951725a18.243678 18.243678 0 0 1 10.004598-3.177931h298.372413a17.655172 17.655172 0 0 1 9.298391 2.707127l448.088276 279.422529A17.655172 17.655172 0 0 1 1212.47285 1024zM79.481585 988.689655h1071.08046L759.088022 744.577471H470.955608zM1141.85216 509.528276a17.655172 17.655172 0 0 1-17.655172-17.655173v-107.343448a17.655172 17.655172 0 0 1 29.425287-13.182529l70.62069 63.205518a17.655172 17.655172 0 0 1-2.471725 28.130574l-70.620689 44.137931a17.655172 17.655172 0 0 1-9.298391 2.707127zM1159.154229 423.724138v36.016552l23.54023-14.830345z" fill="#ffffff" p-id="4319"></path></svg>